<?xml version="1.0" encoding="UTF-8"?>
<svg id="Layer_2" data-name="Layer 2" xmlns="http://www.w3.org/2000/svg" viewBox="0 0 269.38 116.86">
  <defs>
    <style>
      .cls-1 {
        fill: #e3454b;
      }

      .cls-2 {
        fill: #f1f2f2;
      }
    </style>
  </defs>
  <g id="Layer_1-2" data-name="Layer 1">
    <g>
      <g>
        <path class="cls-2" d="m189.55,83.38c-1.88-.38-2.23-.83-2.23-1.55s.73-1.45,1.95-1.45c1.03,0,1.81.43,2.28.79l.2.15.46-.59-.2-.15c-.78-.6-1.72-.91-2.72-.91-1.52,0-2.71.96-2.71,2.2,0,1.38,1.11,1.89,2.78,2.23,1.91.39,2.27.85,2.27,1.59,0,.9-.85,1.53-2.07,1.53-1,0-1.92-.38-2.66-1.09l-.18-.17-.53.53.19.18c.88.83,1.97,1.28,3.16,1.28,1.66,0,2.83-.93,2.83-2.28,0-1.2-.81-1.85-2.81-2.26Z"/>
        <polygon class="cls-2" points="199.18 80.48 201.9 80.48 201.9 87.8 202.64 87.8 202.64 80.48 205.37 80.48 205.37 79.76 199.18 79.76 199.18 80.48"/>
        <path class="cls-2" d="m218.49,84.22c0,1.92-.91,2.98-2.55,2.98s-2.57-1.09-2.57-2.99v-4.45h-.74v4.45c0,2.32,1.23,3.71,3.3,3.71s3.3-1.39,3.3-3.71v-4.45h-.74v4.46Z"/>
        <path class="cls-2" d="m230,79.76h-2.67v8.04h2.67c2.47,0,4.26-1.69,4.26-4.03s-1.79-4.01-4.26-4.01Zm.01,7.33h-1.95v-6.61h1.93c2.05,0,3.53,1.39,3.53,3.31v.02c0,1.9-1.48,3.28-3.51,3.28Z"/>
        <rect class="cls-2" x="242.21" y="79.76" width=".74" height="8.04"/>
        <path class="cls-2" d="m254.9,79.63c-2.28,0-4,1.78-4,4.16s1.72,4.14,4,4.14,4-1.78,4-4.16-1.72-4.14-4-4.14Zm-.01.71c2.05,0,3.27,1.75,3.27,3.44v.02c0,1.65-1.14,3.41-3.25,3.41s-3.27-1.75-3.27-3.46,1.14-3.41,3.25-3.41Z"/>
      </g>
      <g>
        <path class="cls-2" d="m99.97,44.73h13.06c3.73,0,6.73,1.13,8.64,3.04,1.48,1.48,2.34,3.6,2.34,5.99v.09c0,5.03-3.47,7.98-8.25,8.85l9.33,12.73h-.34c-2.43,0-4.73-1.47-6.18-3.42l-6.5-8.7h-8.68v12.12h-3.43v-30.7Zm12.76,15.49c4.56,0,7.81-2.34,7.81-6.25v-.09c0-3.73-2.86-5.99-7.77-5.99h-9.37v12.32h9.33Z"/>
        <path class="cls-2" d="m139.08,47.9h-10.2v-3.17h23.87c0,1.75-1.42,3.17-3.17,3.17h-7.03v27.53h-3.47v-27.53Z"/>
        <path class="cls-2" d="m159.47,44.73h3.43v30.76h-3.43v-30.76Z"/>
        <path class="cls-2" d="m171.93,68.06h0c3.17,2.86,6.21,4.3,10.42,4.3s6.77-2.17,6.77-5.16v-.09c0-2.82-1.52-4.43-7.9-5.77-6.99-1.52-10.2-3.78-10.2-8.77v-.09c0-4.77,4.39-7.77,10.16-7.77,2.97,0,5.38.57,7.57,1.69,1.75.89,2.29,3.13,1.11,4.69h0c-2.82-2.3-5.64-3.3-8.77-3.3-3.95,0-6.64,1.65-6.64,4.38v.09c0,2.86,1.56,4.47,8.25,5.9,6.77,1.48,9.89,3.95,9.89,8.59v.09c0,5.21-4.34,8.59-10.37,8.59-3.63,0-6.76-.91-9.65-2.75-1.57-1-1.84-3.2-.64-4.63Z"/>
        <path class="cls-2" d="m210.16,44.73h3.21l13.84,30.7h0s0,0,0,0c-2.24,0-4.27-1.64-5.18-3.69l-3.64-8.21-13.37.02-5.19,11.88h-3.52l13.84-30.7Zm6.8,15.49l-5.23-11.72-5.27,11.72h10.5Z"/>
        <path class="cls-2" d="m77.57,44.73h3.21l13.84,30.7h0s0,0,0,0c-2.24,0-4.27-1.64-5.18-3.69l-3.64-8.21-13.37.02-5.19,11.88h-3.52l13.84-30.7Zm6.8,15.49l-5.23-11.72-5.27,11.72h10.5Z"/>
        <path class="cls-2" d="m233.21,44.73h3.21l19.14,24.35v-21c0-1.85,1.5-3.34,3.34-3.34h0v30.7h-2.73l-19.62-25.23v25.24h-3.34v-30.7Z"/>
      </g>
      <rect class="cls-1" x="263.04" y="69.09" width="6.34" height="6.34"/>
    </g>
    <g>
      <path class="cls-1" d="m32.64,22.88c0-5.71-4.15-10.45-9.59-11.39V1.93c0-1.06-.86-1.93-1.93-1.93s-1.93.86-1.93,1.93v9.55c-5.5.9-9.71,5.66-9.71,11.41,0,3.65,1.7,6.91,4.35,9.03l-4.19,18.87H2.39v-.71H0v2.57h2.39v-.65h6.99l-3.49,15.72v7.46L.44,101.33c-.29,1.37-.2,2.8.24,4.13l1.68,5.03.73,6.37,1.4-6.37,10.62-51.89-1.05-.23,1.01-6.37h5.61v5.26h.94v-5.26h5.61l1.01,6.37-1.05.23,2.48,12.13c.53,2.58,2.8,4.44,5.44,4.44h1.3v-7.46l-7.98-35.9c2.58-2.12,4.23-5.34,4.23-8.94Zm-11.58-5.94c3.27,0,5.94,2.66,5.94,5.94s-2.66,5.94-5.94,5.94-5.94-2.66-5.94-5.94,2.66-5.94,5.94-5.94Zm.54,33.84v-4.05h-.94v4.05h-5.41l.9-5.73,1.5-.1,2.07-10.59c.44.05.89.08,1.34.08.5,0,1-.04,1.49-.11l2.07,10.61,1.5.1.9,5.73h-5.41Z"/>
      <polygon class="cls-1" points="32.95 52 39.94 52 39.94 50.79 32.68 50.79 32.95 52"/>
      <rect class="cls-1" x="40.02" y="50.08" width="2.39" height="2.57"/>
    </g>
  </g>
</svg>